# xmcd
#
# Track frame offsets:
# 225
# 12846
# 31080
# 43089
# 58807
# 74523
# 90073
# 105984
# 120292
# 135291
# 151803
# 166144
# 188636
# 203056
# 218122
# 242055
#
# Disc length: 3558 seconds
#
#
# Revision: 1
# Processed by: cddbd v1.5.1PL2 Copyright (c) Steve Scherf et al.
# Submitted via: FreeRIP 2.944 
#
DISCID=bf0de310
DTITLE=Ike and Tina Turner - The Very Best Of...
DYEAR=1999
DGENRE=Pop
TTITLE0=Nutbush City Limits
TTITLE1=I Idolize You
TTITLE2=Stagger Lee
TTITLE3=River Deep, Mountain High
TTITLE4=I Can't Believe What You Say
TTITLE5=Why I Sing The Blues
TTITLE6=Mississippi Rolling Stone
TTITLE7=Baby Get It On
TTITLE8=Hully Gully
TTITLE9=I Can't Stop Loving You
TTITLE10=Sweet Rhode Island Red
TTITLE11=Pick Me Up
TTITLE12=Ooh Poo Pah Do
TTITLE13=It's All Over
TTITLE14=A Fool For You (Live)
TTITLE15=All I Can do Is Cry (Live)
EXTD=
EXTT0=
EXTT1=
EXTT2=
EXTT3=
EXTT4=
EXTT5=
EXTT6=
EXTT7=
EXTT8=
EXTT9=
EXTT10=
EXTT11=
EXTT12=
EXTT13=
EXTT14=
EXTT15=
PLAYORDER=
